# xmcd
#
# Track frame offsets:
#	150
#	4881
#	25335
#	48490
#	72939
#	103243
#
# Disc length: 1900 seconds
#
# Revision: 1
# Processed by: cddbd v1.4PL0 Copyright (c) Steve Scherf et al.
# Submitted via: audiograbber 1.82.01
#
DISCID=4d076a06
DTITLE=Tom Gibson - Five Tales of the Road
DYEAR=2000
DGENRE=
TTITLE0=Introduction
TTITLE1=Just A Ride
TTITLE2=Grandpa's Spurs
TTITLE3=The Auction
TTITLE4=The Long Way Home
TTITLE5=The Invitation
EXTD=
EXTT0=
EXTT1=
EXTT2=
EXTT3=
EXTT4=
EXTT5=
PLAYORDER=
